# xmcd
#
# Track frame offsets: 
#        150
#        12107
#        18283
#        32567
#        55885
#        69810
#        77720
#        91572
#        109241
#        122219
#        149045
#        162646
#        193452
#
# Disc length: 2775 seconds
#
# Revision: 0
# Processed by: cddbd v1.5.2PL0 Copyright (c) Steve Scherf et al.
# Submitted via: ExactAudioCopy v0.99pb5
#
DISCID=ac0ad50d
DTITLE=Son House - In Seattle 1968 - CD2
DYEAR=1968
DGENRE=Blues
TTITLE0=My Black Mama pt. 1
TTITLE1=Interview
TTITLE2=Louise Johnson - All Night Long Blues
TTITLE3=Interview
TTITLE4=Charlie Patton - Mississippi Bo Weevil Blues
TTITLE5=Interview
TTITLE6=Willie Brown - M and O Blues
TTITLE7=Interview
TTITLE8=Rube Lacy - Ham Hound Crave
TTITLE9=Interview
TTITLE10=Robert Johnson - Terraplane Blues
TTITLE11=Interview
TTITLE12=My Black Mama pt. 2
EXTD=
EXTT0=
EXTT1=
EXTT2=
EXTT3=
EXTT4=
EXTT5=
EXTT6=
EXTT7=
EXTT8=
EXTT9=
EXTT10=
EXTT11=
EXTT12=
PLAYORDER=
